<svg width="40" height="40" viewBox="0 0 40 40" fill="none" xmlns="http://www.w3.org/2000/svg">
<g clip-path="url(#clip0_20_379)">
<path d="M33.9169 20.6304C33.9119 20.5833 33.9046 20.5373 33.8939 20.4907C33.881 20.4375 33.8636 20.3859 33.8429 20.3348C33.8322 20.3085 33.8294 20.2804 33.8165 20.2546C33.8076 20.2361 33.7924 20.2227 33.7823 20.2047C33.7717 20.1857 33.7666 20.1643 33.7549 20.1453L29.2818 13.1323C29.076 12.8092 28.7187 12.6141 28.3357 12.6141H22.8548C22.8498 12.6141 22.8453 12.6141 22.8402 12.6141H18.098C18.098 12.6141 18.0924 12.6141 18.0896 12.6141H12.6059C12.2229 12.6141 11.8662 12.8098 11.6598 13.1323L7.18673 20.1453C7.17495 20.1638 7.16991 20.1851 7.15925 20.2047C7.14916 20.2227 7.13458 20.2361 7.12504 20.2546C7.1127 20.2804 7.10934 20.3085 7.09868 20.3348C7.07793 20.3864 7.06055 20.4375 7.04765 20.4907C7.03643 20.5373 7.02914 20.5833 7.02466 20.6304C7.01905 20.6837 7.0168 20.7353 7.01905 20.7891C7.02073 20.8373 7.02522 20.8839 7.03307 20.931C7.04148 20.9831 7.05438 21.0336 7.07064 21.0846C7.08522 21.1312 7.10205 21.1755 7.1228 21.2204C7.13289 21.2422 7.13682 21.2664 7.1486 21.2882C7.16374 21.3163 7.18673 21.3376 7.20412 21.3639C7.21982 21.3875 7.22823 21.4138 7.24506 21.4363L19.5729 37.359C19.5729 37.359 19.5752 37.3618 19.5763 37.3629C19.5763 37.3629 19.5774 37.3646 19.578 37.3657L19.5825 37.3719C19.5875 37.3786 19.5948 37.3837 19.6004 37.3904C19.6441 37.4448 19.6929 37.4953 19.7473 37.5407C19.7642 37.5547 19.7821 37.567 19.8001 37.5799C19.8169 37.5923 19.8331 37.6041 19.8505 37.6158C19.8808 37.636 19.9111 37.6551 19.9436 37.6725C19.9733 37.6882 20.0036 37.7011 20.035 37.714C20.0603 37.7246 20.0833 37.7387 20.1096 37.7476C20.1136 37.7488 20.1175 37.7493 20.1214 37.7504C20.1293 37.7532 20.1377 37.7544 20.1461 37.7566C20.1567 37.76 20.1674 37.7617 20.178 37.7645C20.1994 37.7701 20.2207 37.7762 20.2425 37.7807C20.3182 37.7964 20.394 37.8071 20.4691 37.8071C20.5443 37.8071 20.62 37.7964 20.6957 37.7807C20.7176 37.7762 20.7389 37.7706 20.7602 37.7645C20.7708 37.7617 20.7815 37.7594 20.7921 37.7566C20.8 37.7544 20.8084 37.7532 20.8168 37.7504C20.8207 37.7493 20.8247 37.7488 20.8286 37.7476C20.855 37.7387 20.8779 37.7246 20.9032 37.714C20.934 37.7011 20.9649 37.6882 20.9946 37.6725C21.0271 37.6551 21.0574 37.636 21.0877 37.6158C21.1051 37.6041 21.1213 37.5928 21.1382 37.5799C21.1555 37.567 21.1741 37.5547 21.1909 37.5407C21.2453 37.4947 21.2941 37.4448 21.3378 37.3904C21.3434 37.3837 21.3502 37.3792 21.3558 37.3724L21.3602 37.3663C21.3602 37.3663 21.3614 37.3646 21.3619 37.364C21.3619 37.364 21.3642 37.3607 21.3653 37.3595L33.6932 21.4368C33.7105 21.4144 33.719 21.388 33.7341 21.3645C33.7515 21.3381 33.7745 21.3168 33.7896 21.2888C33.8014 21.2669 33.8053 21.2434 33.8154 21.2209C33.8362 21.1766 33.853 21.1318 33.8676 21.0852C33.8838 21.0342 33.8962 20.9837 33.9051 20.9315C33.913 20.8839 33.9175 20.8373 33.9192 20.7897C33.9209 20.7364 33.9192 20.6842 33.9136 20.6309L33.9169 20.6304ZM30.7635 19.6271H26.6078L24.5575 14.8573H27.721L30.7635 19.6271ZM16.7767 19.6271L18.827 14.8573H22.1162L24.1666 19.6271H16.7773H16.7767ZM24.3051 21.8704L20.4714 33.1876L16.6376 21.8704H24.3045H24.3051ZM13.2211 14.8573H16.3847L14.3343 19.6271H10.1787L13.2211 14.8573ZM14.2693 21.8704L17.2629 30.7071L10.421 21.8704H14.2693ZM23.6803 30.7071L26.674 21.8704H30.5223L23.6803 30.7071Z" fill="url(#paint0_linear_20_379)"/>
<path d="M20.4714 9.48471C21.0905 9.48471 21.593 8.98222 21.593 8.36307V3.31572C21.593 2.69602 21.0905 2.19409 20.4714 2.19409C19.8522 2.19409 19.3497 2.69602 19.3497 3.31572V8.36307C19.3497 8.98222 19.8522 9.48471 20.4714 9.48471Z" fill="url(#paint1_linear_20_379)"/>
<path d="M7.98312 14.5287C8.42111 14.0907 8.42111 13.3807 7.98312 12.9427L4.41464 9.37366C3.97664 8.93567 3.26665 8.93567 2.82865 9.37366C2.39065 9.81166 2.39065 10.5217 2.82865 10.9597L6.39713 14.5287C6.61641 14.748 6.90298 14.8573 7.19012 14.8573C7.47726 14.8573 7.76384 14.748 7.98312 14.5287Z" fill="url(#paint2_linear_20_379)"/>
<path d="M37.1714 9.37366C36.7334 8.93567 36.0234 8.93567 35.5854 9.37366L32.0163 12.9427C31.5783 13.3807 31.5783 14.0907 32.0163 14.5287C32.2356 14.748 32.5222 14.8573 32.8093 14.8573C33.0965 14.8573 33.383 14.748 33.6023 14.5287L37.1714 10.9597C37.6094 10.5217 37.6094 9.81166 37.1714 9.37366Z" fill="url(#paint3_linear_20_379)"/>
</g>
<defs>
<linearGradient id="paint0_linear_20_379" x1="7.01819" y1="25.2113" x2="33.9198" y2="25.2113" gradientUnits="userSpaceOnUse">
<stop stop-color="#333333"/>
<stop offset="0.29" stop-color="#737373"/>
<stop offset="0.704" stop-color="#C6C6C6"/>
<stop offset="0.924" stop-color="#CCCCCC"/>
</linearGradient>
<linearGradient id="paint1_linear_20_379" x1="19.3497" y1="5.83962" x2="21.593" y2="5.83962" gradientUnits="userSpaceOnUse">
<stop stop-color="#333333"/>
<stop offset="0.29" stop-color="#737373"/>
<stop offset="0.704" stop-color="#C6C6C6"/>
<stop offset="0.924" stop-color="#CCCCCC"/>
</linearGradient>
<linearGradient id="paint2_linear_20_379" x1="2.50015" y1="11.9514" x2="8.31161" y2="11.9514" gradientUnits="userSpaceOnUse">
<stop stop-color="#333333"/>
<stop offset="0.29" stop-color="#737373"/>
<stop offset="0.704" stop-color="#C6C6C6"/>
<stop offset="0.924" stop-color="#CCCCCC"/>
</linearGradient>
<linearGradient id="paint3_linear_20_379" x1="31.6878" y1="11.9514" x2="37.4999" y2="11.9514" gradientUnits="userSpaceOnUse">
<stop stop-color="#333333"/>
<stop offset="0.29" stop-color="#737373"/>
<stop offset="0.704" stop-color="#C6C6C6"/>
<stop offset="0.924" stop-color="#CCCCCC"/>
</linearGradient>
<clipPath id="clip0_20_379">
<rect width="35" height="35.6119" fill="white" transform="translate(2.5 2.19409)"/>
</clipPath>
</defs>
</svg>
