<svg width="56" height="56" viewBox="0 0 56 56" fill="none" xmlns="http://www.w3.org/2000/svg">
<path d="M22.3134 35.8079V41.6242C22.3134 41.7734 22.3727 41.9165 22.4782 42.022C22.5836 42.1274 22.7267 42.1867 22.8759 42.1867H31.2744C31.4236 42.1867 31.5667 42.1274 31.6722 42.022C31.7776 41.9165 31.8369 41.7734 31.8369 41.6242V35.8079C31.8369 35.6587 31.7776 35.5156 31.6722 35.4101C31.5667 35.3046 31.4236 35.2454 31.2744 35.2454H22.8759C22.7267 35.2454 22.5836 35.3046 22.4782 35.4101C22.3727 35.5156 22.3134 35.6587 22.3134 35.8079ZM23.4384 36.3704H30.7119V41.0617H23.4384V36.3704Z" fill="#FFFBF5"/>
<path d="M20.2038 33.1836C20.2828 33.3102 20.4088 33.4002 20.5541 33.4339C20.6995 33.4675 20.8522 33.4421 20.9788 33.3632L28.1043 28.9175C28.2308 28.8386 28.3208 28.7126 28.3545 28.5672C28.3881 28.4219 28.3626 28.2692 28.2837 28.1426L25.2049 23.2079C25.126 23.0813 25 22.9913 24.8547 22.9576C24.7093 22.924 24.5566 22.9494 24.43 23.0283L17.305 27.474C17.2423 27.513 17.1879 27.5641 17.1449 27.6241C17.1019 27.6842 17.0712 27.7522 17.0545 27.8242C17.0378 27.8961 17.0354 27.9707 17.0475 28.0436C17.0596 28.1164 17.0859 28.1862 17.125 28.2489L20.2038 33.1836ZM24.5482 24.2806L27.0315 28.2608L20.8606 32.1109L18.3773 28.1307L24.5482 24.2806Z" fill="#FFFBF5"/>
<path d="M7.46875 19.0938C7.31957 19.0938 7.17649 19.153 7.071 19.2585C6.96551 19.364 6.90625 19.5071 6.90625 19.6562V19.8438C6.90625 19.9929 6.96551 20.136 7.071 20.2415C7.17649 20.347 7.31957 20.4062 7.46875 20.4062C7.61793 20.4062 7.76101 20.347 7.8665 20.2415C7.97199 20.136 8.03125 19.9929 8.03125 19.8438V19.6562C8.03125 19.5071 7.97199 19.364 7.8665 19.2585C7.76101 19.153 7.61793 19.0938 7.46875 19.0938Z" fill="#FFFBF5"/>
<path d="M7.46875 21.7188C7.31957 21.7188 7.17649 21.778 7.071 21.8835C6.96551 21.989 6.90625 22.1321 6.90625 22.2812V30.9062C6.90625 31.0554 6.96551 31.1985 7.071 31.304C7.17649 31.4095 7.31957 31.4688 7.46875 31.4688C7.61793 31.4688 7.76101 31.4095 7.8665 31.304C7.97199 31.1985 8.03125 31.0554 8.03125 30.9062V22.2812C8.03125 22.1321 7.97199 21.989 7.8665 21.8835C7.76101 21.778 7.61793 21.7188 7.46875 21.7188Z" fill="#FFFBF5"/>
<path d="M46.9402 14.9227H37.0675V11.4658C37.066 10.4173 36.6835 9.40511 35.9912 8.61769C35.2989 7.83027 34.344 7.32132 33.3044 7.18563V7.18066C33.3044 7.03148 33.2451 6.88841 33.1396 6.78292C33.0341 6.67743 32.8911 6.61816 32.7419 6.61816H23.2581C23.1089 6.61816 22.9659 6.67743 22.8604 6.78292C22.7549 6.88841 22.6956 7.03148 22.6956 7.18066V7.18563C21.656 7.32132 20.7011 7.83027 20.0088 8.61769C19.3165 9.40511 18.934 10.4173 18.9325 11.4658V14.9227H9.05978C7.84258 14.9241 6.67563 15.4082 5.81494 16.2689C4.95425 17.1296 4.47011 18.2966 4.46875 19.5138V44.7906C4.47014 46.0078 4.95428 47.1748 5.81497 48.0354C6.67565 48.8961 7.84259 49.3803 9.05978 49.3817H46.9402C48.1574 49.3803 49.3243 48.8961 50.185 48.0354C51.0457 47.1748 51.5299 46.0078 51.5312 44.7906V19.5138C51.5299 18.2966 51.0457 17.1296 50.1851 16.2689C49.3244 15.4082 48.1574 14.9241 46.9402 14.9227ZM33.3044 8.32291C34.043 8.45402 34.7119 8.84068 35.1942 9.41524C35.6765 9.9898 35.9414 10.7157 35.9425 11.4658V14.9227H34.4031V11.4658C34.4025 11.125 34.2966 10.7927 34.1 10.5143C33.9033 10.236 33.6254 10.0252 33.3044 9.91076V8.32291ZM23.8206 7.74316H32.1794V10.2445H23.8206V7.74316ZM22.7219 11.4658C22.7219 11.3561 22.7563 11.2491 22.8203 11.16C22.873 11.2254 22.9396 11.2782 23.0154 11.3145C23.0911 11.3507 23.174 11.3696 23.258 11.3695H32.7419C32.8259 11.3696 32.9088 11.3507 32.9845 11.3145C33.0603 11.2782 33.127 11.2254 33.1796 11.16C33.2436 11.2491 33.278 11.3561 33.278 11.4658V14.9227H22.7219V11.4658ZM20.0574 11.4658C20.0585 10.7157 20.3234 9.9898 20.8057 9.41524C21.288 8.84068 21.9569 8.45402 22.6955 8.32291V9.91076C22.3745 10.0252 22.0967 10.236 21.9 10.5143C21.7033 10.7927 21.5975 11.125 21.5969 11.4658V14.9227H20.0575L20.0574 11.4658ZM9.8125 48.2569H9.05969C8.14074 48.2558 7.25975 47.8902 6.60998 47.2404C5.96021 46.5906 5.59474 45.7096 5.59375 44.7906V19.5138C5.59479 18.5948 5.9603 17.7138 6.61008 17.0641C7.25986 16.4143 8.14085 16.0488 9.05978 16.0477H9.8125V48.2569ZM41.0338 48.2569H14.9661V25.886C14.9661 25.7369 14.9069 25.5938 14.8014 25.4883C14.6959 25.3828 14.5528 25.3235 14.4036 25.3235C14.2544 25.3235 14.1114 25.3828 14.0059 25.4883C13.9004 25.5938 13.8411 25.7369 13.8411 25.886V48.2569H10.9375V16.0477H13.841V21.1985C13.841 21.3477 13.9003 21.4908 14.0058 21.5963C14.1113 21.7018 14.2543 21.761 14.4035 21.761C14.5527 21.761 14.6958 21.7018 14.8013 21.5963C14.9068 21.4908 14.966 21.3477 14.966 21.1985V16.0477H41.0339L41.0338 48.2569ZM45.0623 48.2569H42.1589V16.0477H45.0625L45.0623 48.2569ZM50.4062 44.7906C50.4052 45.7096 50.0397 46.5906 49.3899 47.2403C48.7401 47.8901 47.8591 48.2556 46.9402 48.2567H46.1875V16.0477H46.9403C47.8592 16.0488 48.7402 16.4143 49.39 17.0641C50.0397 17.7139 50.4052 18.5948 50.4062 19.5138V44.7906Z" fill="#FFFBF5"/>
</svg>
