<svg width="26" height="25" viewBox="0 0 26 25" fill="none" xmlns="http://www.w3.org/2000/svg">
<path d="M12.0567 3.59676C12.3702 2.70613 13.6298 2.70613 13.9433 3.59676L15.6836 8.54082C15.8244 8.94104 16.2025 9.20879 16.6268 9.20879H22.0773C23.0653 9.20879 23.4548 10.489 22.6343 11.0393L18.3661 13.9018C17.9873 14.1559 17.8284 14.6341 17.9798 15.0643L19.6419 19.7863C19.9613 20.6937 18.9406 21.4847 18.1417 20.9489L13.557 17.8741C13.22 17.6482 12.78 17.6482 12.443 17.8741L7.85832 20.9489C7.05938 21.4847 6.03866 20.6937 6.35806 19.7863L8.02019 15.0643C8.17164 14.6341 8.01274 14.1559 7.63391 13.9018L3.36571 11.0393C2.54518 10.489 2.93472 9.20879 3.92271 9.20879H9.37317C9.79746 9.20879 10.1756 8.94104 10.3164 8.54082L12.0567 3.59676Z" fill="#D6B965"/>
</svg>
