<svg width="40" height="40" viewBox="0 0 40 40" fill="none" xmlns="http://www.w3.org/2000/svg">
<path d="M19.8197 14.1677C20.5091 14.1677 21.1662 14.2843 21.7816 14.504L22.9939 13.0554C22.0268 12.6159 20.9533 12.3737 19.8197 12.3737C15.6507 12.3737 12.2636 15.6566 12.2636 19.6975C12.2636 23.7384 15.6507 27.0213 19.8197 27.0213C23.9887 27.0213 27.3757 23.7384 27.3757 19.6975C27.3757 18.056 26.8159 16.5402 25.8719 15.3158L24.655 16.7644C25.2056 17.6165 25.5249 18.6211 25.5249 19.6975C25.5249 22.7472 22.9661 25.2273 19.8197 25.2273C16.6733 25.2273 14.1145 22.7472 14.1145 19.6975C14.1145 16.6478 16.6733 14.1677 19.8197 14.1677Z" fill="url(#paint0_linear_20_369)"/>
<path d="M25.9644 9.50343C24.1598 8.4764 22.0591 7.8844 19.8196 7.8844C13.1011 7.8844 7.63184 13.1855 7.63184 19.6975C7.63184 26.2096 13.1011 31.5107 19.8196 31.5107C26.5382 31.5107 32.0074 26.2096 32.0074 19.6975C32.0074 16.6478 30.8044 13.8627 28.8425 11.7638L27.6579 13.1765C29.2173 14.9301 30.1566 17.2084 30.1566 19.6975C30.1566 25.2229 25.5202 29.7167 19.8196 29.7167C14.119 29.7167 9.48268 25.2229 9.48268 19.6975C9.48268 14.1722 14.119 9.67834 19.8196 9.67834C21.6196 9.67834 23.3085 10.1268 24.7845 10.9117L25.9644 9.50343Z" fill="url(#paint1_linear_20_369)"/>
<path d="M30.6053 9.6514C33.1965 12.2571 34.7882 15.8002 34.7882 19.6975C34.7882 27.6985 28.0743 34.206 19.8195 34.206C11.5648 34.206 4.85084 27.6985 4.85084 19.6975C4.85084 11.6965 11.5648 5.18896 19.8195 5.18896C22.7253 5.18896 25.4368 5.99624 27.7319 7.39103L28.9071 5.98727C26.2836 4.34581 23.1649 3.39502 19.8195 3.39502C10.5468 3.39502 3 10.7098 3 19.6975C3 28.6852 10.5468 36 19.8195 36C29.0922 36 36.639 28.6852 36.639 19.6975C36.639 15.2395 34.7836 11.1942 31.7806 8.24764L30.6053 9.6514Z" fill="url(#paint2_linear_20_369)"/>
<path d="M36.0746 2.02716H34.5661L34.196 0.668245C34.0896 0.269092 33.7148 0 33.3029 0C33.2243 0 33.1456 0.00896973 33.067 0.031394C32.5719 0.152485 32.2757 0.64582 32.4053 1.1257L32.8356 2.71334L32.4978 3.11698L32.4423 2.90171C32.3359 2.49807 31.9565 2.23346 31.5493 2.23346C31.4706 2.23346 31.392 2.24243 31.3133 2.26037C30.8182 2.38595 30.5221 2.87928 30.6516 3.35468L31.0542 4.84365L29.6707 6.49408L28.5046 7.88887L26.751 9.98779L25.5849 11.3826L23.822 13.4905L22.6467 14.8942L19.1024 19.1324C18.7785 19.5181 18.8386 20.0832 19.2366 20.3927C19.4078 20.5272 19.616 20.5945 19.8196 20.5945C20.0879 20.5945 20.3563 20.4824 20.5368 20.2626L24.0811 16.0244L25.2564 14.6207L27.0193 12.5173L28.1854 11.118L29.9437 9.02355L31.1097 7.62427L32.4238 6.05457H34.3209C34.8299 6.05457 35.2463 5.65541 35.2463 5.15759C35.2463 4.65977 34.8299 4.26062 34.3209 4.26062H33.923L34.2885 3.8211H36.0746C36.5836 3.8211 37 3.42195 37 2.92413C37 2.42631 36.5836 2.02716 36.0746 2.02716Z" fill="url(#paint3_linear_20_369)"/>
<defs>
<linearGradient id="paint0_linear_20_369" x1="12.2636" y1="19.6979" x2="27.3758" y2="19.6979" gradientUnits="userSpaceOnUse">
<stop stop-color="#333333"/>
<stop offset="0.29" stop-color="#737373"/>
<stop offset="0.704" stop-color="#C6C6C6"/>
<stop offset="0.924" stop-color="#CCCCCC"/>
</linearGradient>
<linearGradient id="paint1_linear_20_369" x1="7.63184" y1="19.6982" x2="32.0074" y2="19.6982" gradientUnits="userSpaceOnUse">
<stop stop-color="#333333"/>
<stop offset="0.29" stop-color="#737373"/>
<stop offset="0.704" stop-color="#C6C6C6"/>
<stop offset="0.924" stop-color="#CCCCCC"/>
</linearGradient>
<linearGradient id="paint2_linear_20_369" x1="3" y1="19.6985" x2="36.639" y2="19.6985" gradientUnits="userSpaceOnUse">
<stop stop-color="#333333"/>
<stop offset="0.29" stop-color="#737373"/>
<stop offset="0.704" stop-color="#C6C6C6"/>
<stop offset="0.924" stop-color="#CCCCCC"/>
</linearGradient>
<linearGradient id="paint3_linear_20_369" x1="18.8939" y1="10.2979" x2="37" y2="10.2979" gradientUnits="userSpaceOnUse">
<stop stop-color="#333333"/>
<stop offset="0.29" stop-color="#737373"/>
<stop offset="0.704" stop-color="#C6C6C6"/>
<stop offset="0.924" stop-color="#CCCCCC"/>
</linearGradient>
</defs>
</svg>
