<svg width="48" height="48" viewBox="0 0 48 48" fill="none" xmlns="http://www.w3.org/2000/svg">
<g clip-path="url(#clip0_1_105)">
<path d="M47.7747 15.9282L43.425 11.5796C43.3542 11.5082 43.2699 11.4515 43.1771 11.4129C43.0843 11.3742 42.9847 11.3543 42.8841 11.3543C42.7836 11.3543 42.684 11.3742 42.5912 11.4129C42.4984 11.4515 42.4141 11.5082 42.3433 11.5796C41.464 12.2637 40.365 12.6031 39.2529 12.534C38.1409 12.4649 37.0924 11.9921 36.3045 11.2044C35.5166 10.4167 35.0437 9.36849 34.9746 8.25671C34.9055 7.14494 35.245 6.04621 35.9292 5.16709C36.0006 5.09629 36.0573 5.01206 36.096 4.91926C36.1346 4.82645 36.1546 4.72691 36.1546 4.62637C36.1546 4.52583 36.1346 4.42629 36.096 4.33349C36.0573 4.24068 36.0006 4.15645 35.9292 4.08565L31.5796 -0.262958C31.5084 -0.337849 31.4227 -0.397484 31.3278 -0.438235C31.2328 -0.478985 31.1306 -0.5 31.0273 -0.5C30.924 -0.5 30.8217 -0.478985 30.7268 -0.438235C30.6318 -0.397484 30.5462 -0.337849 30.475 -0.262958L0.225329 30.0021C0.15393 30.0729 0.0972587 30.1572 0.058585 30.25C0.0199112 30.3428 0 30.4423 0 30.5429C0 30.6434 0.0199112 30.7429 0.058585 30.8357C0.0972587 30.9286 0.15393 31.0128 0.225329 31.0836L4.575 35.4322C4.64582 35.5036 4.73007 35.5602 4.8229 35.5989C4.91573 35.6376 5.0153 35.6575 5.11586 35.6575C5.21642 35.6575 5.31599 35.6376 5.40881 35.5989C5.50164 35.5602 5.58589 35.5036 5.65671 35.4322C6.29737 34.8156 7.10402 34.3993 7.97781 34.2342C8.85161 34.0692 9.75459 34.1625 10.5761 34.5028C11.3976 34.8432 12.102 35.4157 12.6029 36.1503C13.1038 36.8848 13.3795 37.7496 13.3962 38.6384C13.4014 39.2344 13.2868 39.8253 13.0591 40.3761C12.8314 40.9269 12.4953 41.4263 12.0708 41.8447C11.9994 41.9155 11.9427 41.9997 11.904 42.0925C11.8653 42.1853 11.8454 42.2849 11.8454 42.3854C11.8454 42.4859 11.8653 42.5855 11.904 42.6783C11.9427 42.7711 11.9994 42.8553 12.0708 42.9261L16.4204 47.2747C16.4913 47.3461 16.5755 47.4028 16.6683 47.4414C16.7612 47.4801 16.8607 47.5 16.9613 47.5C17.0619 47.5 17.1614 47.4801 17.2543 47.4414C17.3471 47.4028 17.4313 47.3461 17.5021 47.2747L47.7747 17.0096C47.8461 16.9388 47.9027 16.8546 47.9414 16.7618C47.9801 16.669 48 16.5694 48 16.4689C48 16.3684 47.9801 16.2688 47.9414 16.176C47.9027 16.0832 47.8461 15.999 47.7747 15.9282ZM36.9805 25.6459L34.8932 23.5592C34.7475 23.4344 34.5601 23.3692 34.3683 23.3766C34.1766 23.384 33.9948 23.4635 33.8591 23.5991C33.7234 23.7348 33.6439 23.9166 33.6365 24.1083C33.6291 24.2999 33.6943 24.4873 33.8191 24.633L35.9064 26.7197L16.9613 45.6602L13.6552 42.3549C14.4832 41.2937 14.9287 39.9843 14.9198 38.6384C14.9075 37.5102 14.5821 36.4075 13.9798 35.4533C13.3775 34.4991 12.522 33.7308 11.5086 33.2342C10.4953 32.7375 9.36388 32.5319 8.24051 32.6403C7.11715 32.7487 6.04596 33.1668 5.14633 33.8481L1.84027 30.5429L20.7854 11.6024L22.8574 13.6891C23.0001 13.831 23.1931 13.9106 23.3944 13.9106C23.5956 13.9106 23.7887 13.831 23.9314 13.6891C24.0733 13.5465 24.153 13.3534 24.153 13.1522C24.153 12.951 24.0733 12.758 23.9314 12.6153L21.8594 10.5591L31.0387 1.42013L34.3448 4.73299C33.5472 5.90941 33.1862 7.32756 33.324 8.74202C33.4619 10.1565 34.09 11.4783 35.0996 12.4787C36.1093 13.479 37.437 14.0951 38.853 14.2202C40.269 14.3453 41.6842 13.9715 42.8537 13.1637L46.1597 16.4689L36.9805 25.6459ZM24.7922 15.5931C24.7208 15.5223 24.6642 15.4381 24.6255 15.3453C24.5868 15.2525 24.5669 15.1529 24.5669 15.0524C24.5669 14.9518 24.5868 14.8523 24.6255 14.7595C24.6642 14.6667 24.7208 14.5824 24.7922 14.5117C24.935 14.3698 25.128 14.2902 25.3293 14.2902C25.5305 14.2902 25.7236 14.3698 25.8663 14.5117L28.4944 17.1391C28.6363 17.2818 28.7159 17.4748 28.7159 17.676C28.7159 17.8772 28.6363 18.0702 28.4944 18.2129C28.4232 18.2835 28.3388 18.3393 28.246 18.3772C28.1532 18.4151 28.0538 18.4344 27.9536 18.4338C27.7537 18.4329 27.5622 18.3536 27.4203 18.2129L24.7922 15.5931ZM33.0193 21.6857C33.0907 21.7565 33.1474 21.8407 33.186 21.9335C33.2247 22.0264 33.2446 22.1259 33.2446 22.2264C33.2446 22.327 33.2247 22.4265 33.186 22.5193C33.1474 22.6121 33.0907 22.6964 33.0193 22.7672C32.9481 22.8377 32.8637 22.8936 32.7709 22.9315C32.6781 22.9694 32.5787 22.9886 32.4784 22.988C32.3782 22.9886 32.2788 22.9694 32.186 22.9315C32.0932 22.8936 32.0088 22.8377 31.9376 22.7672L29.3171 20.1397C29.1923 19.994 29.1271 19.8066 29.1345 19.6149C29.1419 19.4233 29.2214 19.2415 29.3571 19.1058C29.4927 18.9702 29.6746 18.8907 29.8663 18.8833C30.058 18.8759 30.2455 18.9411 30.3912 19.0659L33.0193 21.6857ZM29.9722 26.6436L29.1267 26.0648C28.0774 25.357 26.8825 24.8937 25.6302 24.7092L23.8781 21.1907C23.5312 20.4995 22.9978 19.9193 22.3381 19.5155C21.6784 19.1117 20.9189 18.9006 20.1455 18.906H19.4904C19.3714 18.9068 19.2544 18.9355 19.1486 18.9898C19.0428 19.044 18.9511 19.1222 18.8809 19.2182C18.8101 19.3143 18.7628 19.4257 18.743 19.5435C18.7231 19.6612 18.7312 19.782 18.7667 19.896L20.374 24.9224L15.3921 25.288L15.354 25.2042C15.1675 24.7714 14.8581 24.4028 14.464 24.1442C14.0699 23.8857 13.6086 23.7484 13.1372 23.7496H12.0403C11.9175 23.7498 11.7965 23.7797 11.6878 23.8367C11.579 23.8937 11.4857 23.9762 11.4156 24.0771C11.3462 24.1784 11.3023 24.2951 11.2877 24.4171C11.2731 24.5391 11.2882 24.6628 11.3319 24.7777L12.2993 27.2909L11.3319 29.8041C11.2874 29.9193 11.2716 30.0436 11.2859 30.1663C11.3001 30.2889 11.344 30.4063 11.4137 30.5082C11.4835 30.6101 11.5769 30.6936 11.6861 30.7514C11.7952 30.8091 11.9168 30.8395 12.0403 30.8399H13.122C13.5942 30.8404 14.0562 30.702 14.4503 30.442C14.8445 30.182 15.1534 29.8119 15.3387 29.3776L15.3768 29.3015L20.3816 29.667L18.7514 34.7468C18.716 34.8608 18.7079 34.9816 18.7277 35.0993C18.7476 35.217 18.7948 35.3285 18.8657 35.4246C18.9359 35.5206 19.0275 35.5988 19.1333 35.653C19.2392 35.7072 19.3562 35.7359 19.4751 35.7368H20.1302C20.9037 35.7422 21.6632 35.5311 22.3229 35.1273C22.9825 34.7235 23.516 34.1432 23.8629 33.4521L25.6454 29.8727C26.8873 29.6845 28.0715 29.2214 29.1114 28.5171L29.957 27.9459C30.059 27.8752 30.1421 27.7806 30.1992 27.6705C30.2563 27.5603 30.2856 27.4378 30.2846 27.3138C30.2975 27.1784 30.274 27.042 30.2164 26.9188C30.1588 26.7956 30.0692 26.69 29.957 26.6131L29.9722 26.6436ZM25.0893 28.3571C24.9605 28.3695 24.837 28.4144 24.7304 28.4877C24.6237 28.561 24.5375 28.6602 24.4799 28.776L22.5146 32.7286C22.3297 33.1064 22.0567 33.4344 21.7187 33.6849C21.3807 33.9354 20.9874 34.101 20.5721 34.168L22.0956 29.1568C22.1318 29.0467 22.1424 28.9298 22.1265 28.8149C22.1107 28.7001 22.0688 28.5904 22.0042 28.4942C21.9387 28.3994 21.8526 28.3207 21.7523 28.264C21.6521 28.2072 21.5402 28.174 21.4252 28.1667L14.9121 27.6869H14.8588C14.7102 27.6864 14.5646 27.7294 14.44 27.8106C14.3155 27.8918 14.2175 28.0077 14.158 28.1439L13.9066 28.7227C13.8421 28.8745 13.7368 29.0054 13.6023 29.1008C13.4678 29.1963 13.3094 29.2526 13.1449 29.2634L13.8228 27.5118C13.8909 27.3353 13.8909 27.1399 13.8228 26.9634L13.1449 25.2194C13.3091 25.2279 13.4676 25.2823 13.6023 25.3766C13.737 25.4709 13.8425 25.6012 13.9066 25.7525L14.158 26.3313C14.22 26.479 14.327 26.6034 14.4637 26.6868C14.6005 26.7702 14.7601 26.8084 14.9198 26.7959L21.4176 26.3161C21.5319 26.3069 21.6427 26.2719 21.7416 26.2139C21.8405 26.1559 21.9251 26.0763 21.9889 25.981C22.0537 25.8863 22.0963 25.7783 22.1134 25.6649C22.1306 25.5515 22.1219 25.4356 22.088 25.3261L20.5721 20.4063C20.9916 20.4665 21.3901 20.6285 21.7327 20.878C22.0752 21.1276 22.3515 21.4572 22.5374 21.838L24.4723 25.7297C24.5299 25.8455 24.6161 25.9447 24.7227 26.018C24.8294 26.0913 24.9529 26.1362 25.0817 26.1486C26.1908 26.2537 27.2576 26.6275 28.1897 27.2376C27.2554 27.8489 26.1858 28.2227 25.0741 28.3267L25.0893 28.3571Z" fill="white"/>
</g>
<defs>
<clipPath id="clip0_1_105">
<rect width="48" height="48" fill="white"/>
</clipPath>
</defs>
</svg>
