<svg width="40" height="40" viewBox="0 0 40 40" fill="none" xmlns="http://www.w3.org/2000/svg">
<g clip-path="url(#clip0_20_375)">
<path d="M39.3827 19.3103C39.0296 18.9164 30.619 9.65994 20.0003 9.65994C9.38154 9.65994 0.970415 18.9164 0.617818 19.3103L0 20L0.617818 20.6897C0.970415 21.0836 9.38102 30.3401 20.0003 30.3401C30.6195 30.3401 39.0301 21.0836 39.3827 20.6897L40 20L39.3827 19.3103ZM28.2723 20C28.2723 24.561 24.5613 28.272 20.0003 28.272C15.4393 28.272 11.7282 24.561 11.7282 20C11.7282 15.439 15.4387 11.728 20.0003 11.728C24.5618 11.728 28.2723 15.439 28.2723 20ZM11.8451 13.6662C10.4812 15.4183 9.6602 17.613 9.6602 20C9.6602 22.387 10.4791 24.576 11.8404 26.3271C7.51619 24.3325 4.19083 21.3385 2.83007 19.999C4.19031 18.6573 7.51464 15.6598 11.8456 13.6662H11.8451ZM28.1555 26.3338C29.5193 24.5817 30.3403 22.387 30.3403 20C30.3403 17.613 29.5214 15.424 28.1606 13.6729C32.4848 15.6675 35.8102 18.661 37.171 20.001C35.8107 21.3427 32.4864 24.3397 28.1555 26.3338Z" fill="url(#paint0_linear_20_375)"/>
<path d="M20.0002 25.0418C22.7807 25.0418 25.0426 22.7799 25.0426 20C25.0426 17.2201 22.7807 14.9577 20.0002 14.9577C17.2198 14.9577 14.9584 17.2196 14.9584 20C14.9584 22.7804 17.2203 25.0418 20.0002 25.0418ZM20.0002 17.0257C21.6402 17.0257 22.9746 18.3601 22.9746 20C22.9746 21.6399 21.6402 22.9738 20.0002 22.9738C18.3603 22.9738 17.0264 21.6394 17.0264 20C17.0264 18.3606 18.3608 17.0257 20.0002 17.0257Z" fill="url(#paint1_linear_20_375)"/>
</g>
<defs>
<linearGradient id="paint0_linear_20_375" x1="0" y1="20.0006" x2="40" y2="20.0006" gradientUnits="userSpaceOnUse">
<stop stop-color="#333333"/>
<stop offset="0.29" stop-color="#737373"/>
<stop offset="0.704" stop-color="#C6C6C6"/>
<stop offset="0.924" stop-color="#CCCCCC"/>
</linearGradient>
<linearGradient id="paint1_linear_20_375" x1="14.9584" y1="20" x2="25.0426" y2="20" gradientUnits="userSpaceOnUse">
<stop stop-color="#333333"/>
<stop offset="0.29" stop-color="#737373"/>
<stop offset="0.704" stop-color="#C6C6C6"/>
<stop offset="0.924" stop-color="#CCCCCC"/>
</linearGradient>
<clipPath id="clip0_20_375">
<rect width="40" height="20.6801" fill="white" transform="translate(0 9.65994)"/>
</clipPath>
</defs>
</svg>
